# xmcd CD database file
#
# Track frame offsets:
#	150
#	12549
#	34644
#	53170
#	67796
#	94390
#	119445
#	146964
#	169777
#
# Disc length: 2694 seconds
#
# Revision: 0
# Processed by: cddbd v1.5.2PL0 Copyright (c) Steve Scherf et al.
# Submitted via: CDex 1.51
#
DISCID=7c0a8409
DTITLE=Charlie Hunter - Baboon Strength
DYEAR=2008
DGENRE=Jazz
TTITLE0=Athens
TTITLE1=Astronaut Love Triangle
TTITLE2=Difford Tilbrook
TTITLE3=Welcome to Frankfurt
TTITLE4=A Song for Karen Carpenter
TTITLE5=Baboon Strength
TTITLE6=Fine Corinthian Leather
TTITLE7=Porter Hayes
TTITLE8=Abadaba
EXTD=YEAR: 2008
EXTT0=
EXTT1=
EXTT2=
EXTT3=
EXTT4=
EXTT5=
EXTT6=
EXTT7=
EXTT8=
PLAYORDER=
